                               ETC1337 Presents 

                 "Finley The Fire Engine - Fun In The Snow"

                        V.2 [10 Episodes] DVDRIP .AVI



Format                           : AVI
Format/Info                      : Audio Video Interleave
File size                        : 174 MiB
Duration                         : 11mn 24s
Overall bit rate                 : 2 135 Kbps
Movie name                       : FINLEY_THE_FIRE_ENGINE.Title1.DVDRip.chapter01
Writing application              : Lavf52.78.4
Original source form/Name        : FINLEY_THE_FIRE_ENGINE

Video
ID                               : 0
Format                           : MPEG-4 Visual
Format profile                   : Advanced Simple@L5
Format settings, BVOP            : 2
Format settings, QPel            : No
Format settings, GMC             : No warppoints
Format settings, Matrix          : Default (H.263)
Muxing mode                      : Packed bitstream
Codec ID                         : DX50
Codec ID/Hint                    : DivX 5
Duration                         : 11mn 24s
Bit rate                         : 1 933 Kbps
Width                            : 720 pixels
Height                           : 538 pixels
Display aspect ratio             : 4:3
Frame rate                       : 25.000 fps
Color space                      : YUV
Chroma subsampling               : 4:2:0
Bit depth                        : 8 bits
Scan type                        : Progressive
Compression mode                 : Lossy
Bits/(Pixel*Frame)               : 0.200
Stream size                      : 158 MiB (91%)
Writing library                  : XviD 1.2.1 (UTC 2008-12-04)

Audio
ID                               : 1
Format                           : AC-3
Format/Info                      : Audio Coding 3
Mode extension                   : CM (complete main)
Codec ID                         : 2000
Duration                         : 11mn 22s
Bit rate mode                    : Constant
Bit rate                         : 192 Kbps
Channel(s)                       : 2 channels
Channel positions                : Front: L R
Sampling rate                    : 48.0 KHz
Bit depth                        : 16 bits
Compression mode                 : Lossy
Stream size                      : 15.6 MiB (9%)
Alignment                        : Aligned on interleaves
Interleave, duration             : 32 ms (0.80 video frame)
Interleave, preload duration     : 32 ms


 
 Episode 1. Weather Or Not 


 Episode 2. Sing A Song


 Episode 3. Finley And The Fix-It Shop


 Episode 4. Down In The Dumps


 Episode 5. Sharing And Caring


 Episode 6. Dex The Spoilsport


 Episode 7. Fire Drilled


 Episode 8. Gorby Gets The Hiccups


 Episode 9. Ride A Mile In My Tyres 


Episode 10. [BONUS EPISODE] Miguel On Ice 







Have A Request? Ask me here:                
http://forum.suprbay.org/member.php?action=register&referrer=118982



Please, SEED, COMMENT, And ENJOY

ETC1337	


	
